#!OML:ASF F:\VICON\USERDATA\INSTALL\rory3\rory3.ASF
:FULLY-SPECIFIED
:DEGREES
1
root -2.45098 16.5423 42.9005 -165.356 -6.5192 -175.266
lowerback -12.2872 0.870843 3.81425
upperback -5.3307 0.0120154 2.04682
thorax 1.32137 -0.310446 -0.0251937
lowerneck -16.3169 -2.01655 -8.20049
upperneck 35.4001 -5.44418 4.97543
head 15.5409 -3.81455 2.28194
rclavicle -1.29707e-014 1.98785e-014
rhumerus -37.1215 11.752 -95.936
rradius 30.6069
rwrist 12.2361
rhand -23.3397 -46.2457
rfingers 7.12502
rthumb 3.11508 -76.2027
lclavicle -1.29707e-014 1.98785e-014
lhumerus -37.0511 -13.0726 95.0555
lradius 32.1333
lwrist 6.8259
lhand -31.3049 -29.5465
lfingers 7.12502
lthumb -4.57759 0.38403
rfemur -32.6048 6.80479 26.8812
rtibia 41.5967
rfoot -20.1777 -16.6222
rtoes -1.93532
lfemur -32.5959 -10.512 -14.1789
ltibia 43.4573
lfoot -24.539 19.6099
ltoes 5.11115
2
root -2.46293 16.5414 42.8881 -165.571 -6.13316 -175.279
lowerback -12.344 0.985704 3.86945
upperback -5.11787 0.173144 2.02763
thorax 1.57854 -0.214143 -0.0549498
lowerneck -16.4791 -2.02833 -8.18947
upperneck 35.4604 -5.42547 4.91774
head 15.605 -3.80764 2.25768
rclavicle 2.2208e-014 -8.34896e-015
rhumerus -37.0203 11.7897 -95.8554
rradius 30.7067
rwrist 12.1014
rhand -23.0855 -46.6005
rfingers 7.12502
rthumb 3.36049 -76.5537
lclavicle 2.2208e-014 -8.34896e-015
lhumerus -36.8445 -12.8973 94.9387
lradius 32.1273
lwrist 6.73736
lhand -30.4933 -29.5904
lfingers 7.12502
lthumb -3.79387 0.355616
rfemur -32.3431 6.79214 26.8195
rtibia 41.6333
rfoot -20.1816 -16.3785
rtoes -1.86077
lfemur -32.2059 -10.7065 -14.3291
ltibia 43.4531
lfoot -24.6326 20.0946
ltoes 5.15882
3
root -2.44293 16.5448 42.9283 -165.001 -7.15779 -175.357
lowerback -11.2833 0.678778 3.75907
upperback -6.07215 -0.22213 2.02776
thorax -0.00156739 -0.482457 -0.035659
lowerneck -16.2421 -1.88393 -8.10679
upperneck 35.9264 -5.43116 4.88878
head 15.7729 -3.86841 2.22408
rclavicle -3.95085e-015 5.10877e-014
rhumerus -37.9942 11.6068 -96.1328
rradius 31.2512
rwrist 11.1722
rhand -21.5887 -48.4992
rfingers 7.12502
rthumb 4.80588 -78.4247
lclavicle -3.95085e-015 5.10877e-014
lhumerus -37.7758 -12.7493 94.9454
lradius 32.2082
lwrist 6.67454
lhand -29.8882 -29.9055
lfingers 7.12502
lthumb -3.20953 0.0500424
rfemur -33.1138 6.79584 26.8211
rtibia 41.6072
rfoot -19.9111 -17.219
rtoes -1.51668
lfemur -33.3024 -10.367 -14.0935
ltibia 43.4806
lfoot -24.1584 18.9855
ltoes 4.7482
4
root -2.44858 16.5445 42.9152 -165.255 -7.0842 -175.225
lowerback -11.4225 0.713627 3.86946
upperback -5.86035 -0.181057 2.08689
thorax 0.295613 -0.447494 -0.0339951
lowerneck -16.1169 -1.906 -8.15396
upperneck 35.7938 -5.43975 4.90461
head 15.6804 -3.86991 2.23996
rclavicle -5.96354e-015 -2.32578e-014
rhumerus -37.9023 11.5552 -95.9673
rradius 30.6133
rwrist 12.6531
rhand -22.9292 -46.235
rfingers 7.12502
rthumb 3.51147 -76.1858
lclavicle -5.96354e-015 -2.32578e-014
lhumerus -37.6508 -12.7618 94.9784
lradius 32.2188
lwrist 6.74703
lhand -30.1444 -30.2276
lfingers 7.12502
lthumb -3.45694 -0.27586
rfemur -32.7683 6.92903 26.9568
rtibia 41.5899
rfoot -19.9792 -17.2989
rtoes -2.08918
lfemur -32.9538 -10.3663 -14.0363
ltibia 43.495
lfoot -24.3002 19.1637
ltoes 4.68449
5
root -2.46306 16.5425 42.8715 -165.765 -6.60037 -175.191
lowerback -11.7119 0.913187 3.94489
upperback -5.54073 0.0849513 2.01247
thorax 0.793025 -0.290771 -0.124404
lowerneck -15.7165 -1.95856 -8.14142
upperneck 35.6171 -5.58144 4.95553
head 15.5128 -3.92802 2.23747
rclavicle 2.85753e-015 1.11319e-014
rhumerus -37.9246 11.5007 -96.0317
rradius 30.9532
rwrist 11.849
rhand -21.9833 -47.626
rfingers 7.12502
rthumb 4.42488 -77.5598
lclavicle 2.85753e-015 1.11319e-014
lhumerus -37.7053 -12.9943 95.0439
lradius 32.2556
lwrist 6.80207
lhand -30.6376 -30.0202
lfingers 7.12502
lthumb -3.93317 -0.0767514
rfemur -31.9738 7.06155 26.9852
rtibia 41.5618
rfoot -20.2153 -17.1291
rtoes -2.33162
lfemur -32.0322 -10.4661 -14.2271
ltibia 43.4959
lfoot -24.7839 19.5051
ltoes 5.39528
6
root -2.45411 16.5448 42.9094 -165.177 -7.01118 -175.308
lowerback -11.631 0.70816 3.76606
upperback -5.73431 -0.18238 2.09417
thorax 0.540366 -0.43609 0.0296818
lowerneck -16.0719 -1.96806 -8.26663
upperneck 35.6409 -5.47551 4.94289
head 15.6038 -3.88219 2.27168
rclavicle 1.88162e-014 -1.59028e-014
rhumerus -37.6642 11.9215 -96.0582
rradius 30.9789
rwrist 11.4158
rhand -22.2562 -47.696
rfingers 7.12502
rthumb 4.1614 -77.6351
lclavicle 1.88162e-014 -1.59028e-014
lhumerus -37.4236 -12.7741 94.9572
lradius 32.2519
lwrist 6.79513
lhand -30.558 -29.7876
lfingers 7.12502
lthumb -3.85633 0.15725
rfemur -32.7994 6.94125 26.8321
rtibia 41.5786
rfoot -19.9887 -17.2738
rtoes -1.9089
lfemur -32.9605 -10.4158 -14.1423
ltibia 43.5003
lfoot -24.396 19.2306
ltoes 4.78997
7
root -2.46769 16.5436 42.8912 -165.255 -6.31342 -175.173
lowerback -11.7702 0.933786 3.97571
upperback -5.58618 0.0900681 2.09383
thorax 0.777499 -0.295347 -0.0563523
lowerneck -16.2946 -1.95638 -8.32081
upperneck 35.6704 -5.39264 4.93552
head 15.6654 -3.84463 2.29227
rclavicle 9.33667e-015 1.59028e-015
rhumerus -37.5461 12.1043 -96.0735
rradius 30.8788
rwrist 11.205
rhand -22.412 -47.476
rfingers 7.12502
rthumb 4.01092 -77.418
lclavicle 9.33667e-015 1.59028e-015
lhumerus -37.2874 -12.6529 94.888
lradius 32.2461
lwrist 6.81055
lhand -30.5773 -30.0544
lfingers 7.12502
lthumb -3.87499 -0.109914
rfemur -32.6936 7.14016 26.8429
rtibia 41.5794
rfoot -20.0063 -16.8265
rtoes -2.13462
lfemur -32.6411 -10.7123 -14.1217
ltibia 43.4778
lfoot -24.6408 20.1005
ltoes 5.03941
8
root -2.45421 16.5456 42.9117 -164.951 -6.98576 -175.355
lowerback -11.8143 0.662045 3.63524
upperback -5.69193 -0.244405 2.15586
thorax 0.683118 -0.462229 0.158645
lowerneck -16.3147 -1.94418 -8.3472
upperneck 35.6237 -5.33485 4.91605
head 15.642 -3.81983 2.29993
rclavicle -5.66536e-015 -2.22639e-014
rhumerus -37.4648 12.1711 -96.0399
rradius 30.7828
rwrist 11.2001
rhand -22.3908 -47.3755
rfingers 7.12502
rthumb 4.0314 -77.3171
lclavicle -5.66536e-015 -2.22639e-014
lhumerus -37.1328 -12.5805 94.8422
lradius 32.28
lwrist 6.84832
lhand -30.8909 -30.2549
lfingers 7.12502
lthumb -4.17781 -0.316116
rfemur -33.1056 7.32113 26.6815
rtibia 41.6354
rfoot -19.9438 -17.529
rtoes -1.83448
lfemur -33.2056 -10.5583 -14.1101
ltibia 43.4468
lfoot -24.4239 19.3172
ltoes 4.83084
